<?xml version="1.0" encoding="utf-8"?>
<!-- Generator: Adobe Illustrator 19.0.0, SVG Export Plug-In . SVG Version: 6.00 Build 0)  -->
<svg version="1.1" id="图层_1" xmlns="http://www.w3.org/2000/svg" xmlns:xlink="http://www.w3.org/1999/xlink" x="0px" y="0px"
	 viewBox="0 0 283.5 283.5" style="enable-background:new 0 0 283.5 283.5;" xml:space="preserve">
<style type="text/css">
	.st0{fill:url(#XMLID_2_);}
	.st1{fill:url(#XMLID_3_);}
	.st2{fill:#1ABC9C;stroke:#1ABC9C;stroke-width:9.375000e-002;stroke-miterlimit:10.43;}
</style>
<linearGradient id="XMLID_2_" gradientUnits="userSpaceOnUse" x1="-484.4399" y1="-162.9811" x2="-264.699" y2="-287.5347" gradientTransform="matrix(0.98 -0.1992 0.1992 0.98 493.3725 342.3019)">
	<stop  offset="0" style="stop-color:#ffffff"/>
	<stop  offset="1" style="stop-color:#ffffff"/>
</linearGradient>
<path id="XMLID_1930_" class="st0" d="M203.5,258.9c-5.8,9.2-12,10.8-25.2,6c-24.9-9-49.9-17.4-74.6-26.9
	c-9.7-3.7-15.4-3.8-17.5,8.1c-1.2,6.8-4.6,13.2-8,22.7c-3.2-7.3-6-11.9-7.2-16.8c-1.8-7.4-5.1-8.5-11.2-4.5
	c-3.9,2.6-8.2,4.6-12.3,6.8c-0.9-0.7-1.7-1.4-2.6-2.1c3.4-9.8,6.9-19.6,10.6-30.1c-2.3-1.3-4.8-2.8-7.4-4.1
	c-12.8-6.2-18-17.4-13.5-31C52.1,134.8,70.1,82.5,87.6,30.2c2.9-8.8,5-17.7,15-21.1c1.7-0.6,3.5-0.5,5.1-0.7
	c-18,37.9-28.4,78-42.1,116.9c-6.2,17.5-11.9,35.2-17.9,52.7c-5.5,16.1,0.9,28.2,16.5,33.8c39.5,14.1,78.8,28.9,118.3,43
	C189.1,257,196.3,257.5,203.5,258.9z"/>
<linearGradient id="XMLID_3_" gradientUnits="userSpaceOnUse" x1="-275.4371" y1="-273.9208" x2="-409.6107" y2="-112.9125" gradientTransform="matrix(0.98 -0.1992 0.1992 0.98 493.3725 342.3019)">
	<stop  offset="0" style="stop-color:#ffffff"/>
	<stop  offset="1" style="stop-color:#ffffff"/>
</linearGradient>
<path id="XMLID_1929_" class="st1" d="M251.1,55.1c-13-6.9-26.9-12-40.4-18C186.9,26.4,163.2,15.5,139.3,5
	c-15-6.6-25.1-1.3-28.9,14.1c-1,4-2.5,8-3.8,11.9c-15.4,46.3-30.9,92.6-46.2,139c-7.8,23.6-3.2,31.8,20.3,40.2
	c39.1,13.9,78,28,117,42.3c16.9,6.2,25.2,2.6,29.7-14.1c12.8-47.1,25.6-94.2,38.2-141.3c2-7.6,3.4-15.4,5.6-25.9
	C264.8,65.9,258.7,59.2,251.1,55.1z"/>
<path id="XMLID_1925_" class="st2" d="M246.5,108.9c0.5-10-3.2-19.8-8-28.4c-4.9-8.4-9.9-16.8-16.6-23.8c-2.2,4.3-4.3,8.5-6.4,12.8
	c-10.2-2.6-20.4-5.5-30.8-7.3c-3.6-0.7-7.3-1.2-10.6-2.9c-1.2-4.3-1.4-8.8-2-13.2c-10.4,5.7-19.8,13.2-28.2,21.5
	c-8.3,8.7-15.6,20.7-12.9,33.2c0.9,5.5,5,9.8,9.8,12.3c11.3,6.1,23.9,8.9,35.8,13.2c-0.5,2.2-1.1,4.4-1.7,6.6
	c-12.4,2.4-23.7,12-25.6,24.9c-1.8,12.9-1.1,26-1.2,39c11.3,4,22.7,7.8,34.2,11.4c0.3-2.8,1.2-5.7,0.6-8.6c-1.3-2.6-3.4-4.5-5.2-6.6
	c4.9-6.9,10.2-13.4,14.1-20.9c4.2-8,4-17.7,0.6-25.9c-1.7-4.3-5.5-7.3-8-11.1c-0.3-2.3-0.1-4.7,0-7c11.9,1.5,23.9,2.8,35.9,3.5
	c5.9,0.3,12.4-0.1,17.2-3.9C243.6,123.3,246,115.8,246.5,108.9z M177.8,102.9c-8.1,4.3-19.2,0.4-23-7.8
	c-5.4-10.3,2.3-25.5,14.3-25.6c6.7,0.2,14.4,3.2,17.2,9.8C190.4,87.7,186.4,99,177.8,102.9z M218.1,112.7c-8.9,3.8-20.2-1.4-23-10.6
	c-4-10.3,4.3-22.8,15.3-23.2c7.5,0,15.6,4.2,17.8,11.7C231.5,99.2,226.6,109.6,218.1,112.7z"/>
<path id="XMLID_1924_" class="st2" d="M145.2,184.4c0.6,4.3,0.7,7.1,1,11.4c-3.5-1.2-9.5-7-10.4-9
	C138.7,185.8,142.5,185,145.2,184.4z"/>
<path id="XMLID_1923_" class="st2" d="M64.1,153.5c0,0.2,0.1,0.1,0.1,0.1C64.2,153.5,64.1,153.7,64.1,153.5"/>
<polyline id="XMLID_1922_" class="st2" points="69.5,159.8 69.5,159.8 69.5,159.9 69.5,159.8 "/>
<g id="XMLID_818_">
	<path id="XMLID_1899_" class="st2" d="M136.9,158.8c-0.2-0.7-0.3-1.2-0.4-1.5l0,0c0,0,0,0,0,0c0-0.1-0.1-0.4-0.2-1l1.1,0.5
		c0.6,0.3,0.8,0.4,0.9,0.5c0,0-0.1,0.1-0.1,0c-0.1,0-0.2,0-0.2,0C137.5,157.9,137.2,158.3,136.9,158.8 M136.6,159.2
		c-0.3-1.2-0.6-2.3-0.9-3.2l0.4,0.3l0.1,0.1c0.1,0.5,0.2,0.9,0.2,1l0,0l0,0c0,0.2,0.2,0.7,0.4,1.5
		C136.8,158.9,136.7,159.1,136.6,159.2 M136.3,159.5c0-0.1-0.1-0.3-0.1-0.4c-0.4-1.2-0.8-2.5-1.2-3.5l0.3,0.1l0.2,0.2
		c0.3,1,0.7,2.2,1,3.4C136.5,159.4,136.4,159.5,136.3,159.5 M135.8,160.4c-0.5-1.7-1.1-3.7-1.5-5c0,0,0,0,0,0l0.3,0.1
		c0.4,1.3,0.8,3,1.3,4.6C135.9,160.2,135.9,160.3,135.8,160.4 M135.5,160.8c-0.1-0.2-0.2-0.4-0.2-0.6c-0.5-1.4-1-2.9-1.5-4
		c0.3-0.4,0.4-0.6,0.5-0.7c0.4,1.3,1,3.2,1.5,5C135.7,160.5,135.6,160.6,135.5,160.8 M133.6,156.5
		C133.6,156.5,133.6,156.4,133.6,156.5C133.6,156.5,133.6,156.5,133.6,156.5L133.6,156.5 M133.4,156.8c0,0,0.1-0.1,0.1-0.1
		c0,0.1,0.1,0.3,0.1,0.4l0.3,0.7C133.9,157.8,133.7,157.3,133.4,156.8 M134.3,162.5c-0.6-1.7-1.2-3.5-1.6-4.7
		c0.2-0.3,0.3-0.6,0.5-0.8c0.1,0.4,0.2,0.9,0.3,1.5c0,0,0,0,0,0c0.1,0.1,0.5,1.3,1.2,3.4C134.6,162.2,134.4,162.3,134.3,162.5
		 M116,186.6c0-0.1,0-0.1,0-0.2c0-0.1,0.1-0.1,0.1-0.2c0,0.1,0,0.1,0,0.2C116,186.5,116,186.6,116,186.6 M116.2,187.6
		c0-0.2-0.1-0.3-0.1-0.5c0-0.1,0.1-0.1,0.1-0.2c0,0.2,0.1,0.4,0.1,0.5C116.3,187.5,116.2,187.5,116.2,187.6 M115.8,186.9
		c0-0.1,0-0.1,0-0.2c0.1-0.1,0.1-0.2,0.2-0.3c0,0.1,0,0.1,0,0.2C115.9,186.8,115.8,186.8,115.8,186.9 M116.9,189.9
		c0-0.1,0-0.1,0-0.2c0.3-0.6,0.6-1.3,0.8-1.7l-0.4,0.7l-0.5,0.8c-0.1-0.2-0.1-0.5-0.2-0.8c2.3-4.2,6.3-10.3,6.2-10.6c0,0,0,0,0,0
		c-0.1,0.1-0.3,0.3-0.6,0.6c0.1-0.2,0.2-0.3,0.1-0.3l0,0l0,0l0,0c0,0,0,0,0,0c0,0-0.1,0.2-0.2,0.4c-1.2,1.6-3.8,5.4-5.9,8.7
		c0-0.2-0.1-0.4-0.1-0.5c2.5-4.3,5.9-9.4,5.8-9.6c0,0,0,0,0,0c-0.1,0.3-3.3,5-5.9,9.2c0-0.1,0-0.1,0-0.2c1.4-2.2,3-4.6,4.5-6.9
		c3.2-5.7,6.3-12.2,6.4-12.1c0,0,0,0,0,0c1.8-3.3,3.5-5.5,3.5-5.5c1-1.7,1.8-3,2.3-3.9c0.4,1.1,1,3,1.6,4.7
		c-4.5,6.6-8.1,12-10.4,16.4c-3.3,5.1-5.2,8.1-5.1,8.2c0,0,0,0,0,0C117.8,188.4,117.3,189.3,116.9,189.9 M116.7,189.5
		c0-0.1,0-0.2-0.1-0.3l0,0c0,0,0,0,0,0c0-0.1-0.1-0.3-0.1-0.5c0,0,0.1-0.1,0.1-0.1C116.7,188.9,116.7,189.2,116.7,189.5L116.7,189.5
		 M116,187.9c0-0.2-0.1-0.3-0.1-0.5c0.1-0.1,0.1-0.2,0.2-0.3c0,0.2,0.1,0.3,0.1,0.5C116.1,187.7,116.1,187.8,116,187.9 M116.8,190
		c0,0,0-0.1,0-0.2c0,0,0-0.1,0-0.1C116.9,189.8,116.9,189.8,116.8,190C116.9,189.9,116.9,189.9,116.8,190 M116.4,189.6
		c0-0.1-0.1-0.3-0.1-0.4c0.1-0.1,0.1-0.2,0.2-0.4c0,0.2,0.1,0.3,0.1,0.5C116.6,189.3,116.5,189.5,116.4,189.6 M116.5,189.9
		c0-0.1,0-0.1,0-0.2l0.2-0.4c0,0.1,0,0.2,0.1,0.2L116.5,189.9 M116.6,190.3C116.6,190.3,116.6,190.3,116.6,190.3
		c0-0.2,0.1-0.3,0.2-0.5c0,0,0,0.1,0,0.1C116.7,190.1,116.7,190.2,116.6,190.3 M115,192.4c0,0,0-0.1,0-0.1l0,0
		C115,192.3,115,192.3,115,192.4 M115,192.4C115,192.4,115,192.4,115,192.4C115,192.4,115,192.4,115,192.4
		C115,192.4,115,192.4,115,192.4 M112.7,192.5c0-0.2,0.1-0.4,0.2-0.6c0,0,0,0,0,0.1C112.8,192.2,112.7,192.3,112.7,192.5
		 M112.6,192.9c0-0.1,0-0.2,0.1-0.4C112.6,192.6,112.6,192.8,112.6,192.9C112.6,192.9,112.6,192.9,112.6,192.9"/>
	<path id="XMLID_1884_" class="st2" d="M134.5,155.6L134.5,155.6L134.5,155.6L134.5,155.6 M134.4,155.7c0-0.1,0.1-0.1,0.1-0.1l0,0
		L134.4,155.7L134.4,155.7C134.4,155.7,134.4,155.7,134.4,155.7 M134.1,156.2C134.1,156.2,134.1,156.2,134.1,156.2
		c0.1-0.1,0.1-0.2,0.2-0.3c0.1-0.1,0.1-0.1,0.1-0.2c0,0,0,0,0,0C134.4,155.8,134.2,155.9,134.1,156.2 M133.8,156.5
		c0,0,0.1-0.1,0.1-0.1c0,0,0,0,0,0C133.9,156.5,133.9,156.5,133.8,156.5L133.8,156.5 M133.6,156.9c0.1-0.1,0.1-0.2,0.1-0.2
		c0,0,0,0,0,0C133.7,156.7,133.7,156.8,133.6,156.9C133.6,156.9,133.6,156.9,133.6,156.9 M133,157.8C133,157.8,133,157.8,133,157.8
		c0.2-0.3,0.4-0.5,0.5-0.8c0,0,0,0,0,0C133.4,157.3,133.2,157.5,133,157.8 M126,168C126,167.9,126,167.9,126,168
		c2.8-3.9,5.5-7.8,7-10.2c0,0,0,0,0,0C131.4,160.2,128.8,164.1,126,168 M125.8,168.2C125.8,168.2,125.8,168.2,125.8,168.2
		c0.1-0.2,0.1-0.2,0.2-0.2l0,0l0,0l0,0c0,0,0,0,0,0C125.9,168.1,125.8,168.2,125.8,168.2 M121.6,175.1
		C121.6,175.1,121.6,175.1,121.6,175.1C121.6,175.1,121.6,175.1,121.6,175.1c1.1-1.8,2.1-3.6,3-4.9c0.3-0.5,0.6-1,0.8-1.3
		c0.1-0.2,0.3-0.5,0.4-0.7C125.3,169.1,123.4,172.1,121.6,175.1C121.6,175.1,121.6,175.1,121.6,175.1 M116.2,182.3
		C116.2,182.3,116.2,182.3,116.2,182.3c0.8-1.2,3.5-4.3,5.4-7.2l0,0C119.7,178.1,117,181.2,116.2,182.3 M116.1,182.6
		C116.1,182.6,116.1,182.6,116.1,182.6c0-0.1,0.1-0.1,0.1-0.2c0,0,0,0,0,0C116.2,182.4,116.1,182.5,116.1,182.6 M116,182.6
		L116,182.6 M115.9,182.8C115.9,182.8,115.9,182.8,115.9,182.8c0-0.1,0.1-0.1,0.1-0.1l0,0l0,0l0,0l0,0c0,0,0,0,0-0.1c0,0,0,0,0,0
		c0,0,0,0,0,0.1l0,0l0,0l0,0l0,0l0,0C116,182.7,116,182.7,115.9,182.8 M112,189.6c0.2-0.8,0.6-1.6,1-2.4c0,0,0,0,0,0
		C112.6,188,112.2,188.8,112,189.6L112,189.6"/>
	<path id="XMLID_1875_" class="st2" d="M134.5,155.6L134.5,155.6 M134.1,156.2C134.1,156.2,134.1,156.2,134.1,156.2
		c0.1-0.1,0.1-0.2,0.2-0.3c0.1-0.1,0.1-0.1,0.1-0.2c0,0,0,0,0,0l0-0.1l0,0l0,0l0,0l0,0l0,0l0,0l0,0l0,0c0,0,0,0,0,0.1c0,0,0,0,0,0
		c0,0-0.1,0.1-0.1,0.2C134.2,156,134.1,156.1,134.1,156.2 M133.8,156.5c0,0,0.1-0.1,0.1-0.1c0,0,0,0,0,0
		C133.9,156.4,133.9,156.5,133.8,156.5L133.8,156.5 M133.6,156.8C133.6,156.8,133.6,156.7,133.6,156.8c0.1-0.1,0.1-0.2,0.2-0.2
		c0,0,0,0,0,0C133.7,156.7,133.7,156.7,133.6,156.8C133.6,156.8,133.6,156.8,133.6,156.8 M133,157.7C133,157.7,133,157.7,133,157.7
		c0.2-0.3,0.4-0.5,0.5-0.7c0,0,0,0,0,0C133.4,157.2,133.2,157.4,133,157.7 M127.4,165.7L127.4,165.7L127.4,165.7 M127.4,165.7
		L127.4,165.7 M121.6,175.1c0.3-0.6,2.6-4.3,4.2-6.9c0.1-0.1,0.1-0.2,0.2-0.3c0.8-1.3,1.4-2.3,1.5-2.3l0,0c1-1.7,2.8-4.2,4.3-6.3
		c0.4-0.6,0.9-1.2,1.2-1.7c0,0,0,0,0,0c-1.6,2.3-4.2,5.9-5.6,8l0,0c0,0-0.6,0.9-1.4,2.2c0,0,0,0.1-0.1,0.1c-0.1,0.1-0.1,0.2-0.2,0.3
		c-0.1,0.2-0.3,0.4-0.4,0.7C123.9,171.4,122,174.4,121.6,175.1C121.6,175.1,121.6,175.1,121.6,175.1L121.6,175.1L121.6,175.1"/>
	<path id="XMLID_1871_" class="st2" d="M104.9,191.1C104.9,191.1,104.9,191.1,104.9,191.1c1.1-1.6,2.4-3.3,3.6-4.9
		c1.5-2,2.8-3.8,3.9-5.2c0.6-0.8,1.1-1.5,1.3-1.9c0.2-0.3,0.3-0.5,0.3-0.5c0,0,0,0,0,0l0,0l0,0l0,0c0,0-0.1,0.2-0.2,0.5
		c-0.3,0.4-0.8,1.1-1.4,2C110.5,183.5,107.3,187.6,104.9,191.1 M104.7,191.3C104.7,191.3,104.7,191.3,104.7,191.3
		c0-0.1,0.1-0.2,0.2-0.2c0,0,0,0,0,0C104.8,191.2,104.8,191.3,104.7,191.3 M104.4,191.8C104.4,191.8,104.4,191.8,104.4,191.8
		c0.1-0.2,0.2-0.3,0.3-0.4c0,0,0,0,0,0C104.6,191.5,104.5,191.6,104.4,191.8"/>
	<path id="XMLID_1870_" class="st2" d="M106.5,194.2L106.5,194.2c0.3-0.8,3.6-5.2,6.8-9.5c2.4-3.2,4.3-6.6,5.1-8.1
		c0.3-0.5,0.4-0.8,0.4-0.8l0,0l0,0l0,0l0,0c0,0-0.2,0.3-0.5,0.8c-0.3,0.5-0.7,1.2-1.2,2.1c-1,1.7-2.4,3.9-4,6.1
		C110.1,189,106.8,193.4,106.5,194.2"/>
	<path id="XMLID_1865_" class="st2" d="M110.4,197.1c0.2-0.5,1.2-2.3,1.9-3.1c0,0.1,0,0.1,0,0.2l-0.4,0.8l0.5-0.7
		c0,0.2,0.1,0.4,0.1,0.6c0,0,0,0.1,0,0.1c-0.3,0.5-0.4,0.6-0.3,0.7c0,0,0.1,0,0.1,0c0,0,0.1-0.1,0.1-0.1c0,0,0,0,0,0
		c0-0.1,0-0.3,0.2-0.6c0,0,0,0,0-0.1c0.2,1.4,0.3,1.6,0.2,1.6l-1.1,0.5L110.4,197.1 M107.7,195.6c-1.4-11.5-2.5-20.5-4.5-26.9
		c-0.3-1-0.6-2-0.9-2.9c-0.8-2.4-1.6-4.2-2.2-5.4c-0.6-1.2-1-1.9-1-1.9c0,0,0,0,0,0c-1-2.2-1.5-3.4-1.9-4.1c0.6,0.6,1.4,1.9,1.8,2.5
		l-0.5-0.9c-0.3-0.7-0.7-1.4-1.1-2.1l0.9,1.2c-0.3-0.8-1.9-3.4-2-3.5c1.9,1,7.6,13.5,8.5,16.2c0.1,0.2,0.1,0.4,0.1,0.4
		c0-0.3-0.1-0.9-0.3-1.6c0.1,0.2,0.1,0.3,0.2,0.5c0.1,0.3,0.2,0.6,0.2,0.6l0,0l0,0l0,0l0,0c0,0,0-0.1,0-0.2c0-0.1-0.1-0.3-0.1-0.5
		c-0.1-0.2-0.1-0.4-0.2-0.6c-0.2-0.8-0.6-1.9-1-3.1c-0.6-1.6-1.3-3.4-2.1-5.2c-2-4.4-4.4-8.3-4.4-8.3c0.7,0.5,3.4,4.8,5.5,9.3
		c1.8,3.9,3.3,7.8,3.6,8.8c0,0.1,0.1,0.2,0.1,0.2c0-0.3-0.3-1.3-0.8-2.7c-0.7-2-1.8-4.9-3.1-7.6c-2.1-4.7-4.9-8.9-4.9-8.9
		c1,0.8,5,8,7.7,15.6c0.1,0.2,0.1,0.4,0.2,0.6c0,0.1,0.1,0.3,0.1,0.4c1.3,3.7,2.4,7.4,3.2,10.1c0.8,2.8,1.3,4.7,1.3,4.9c0,0,0,0,0,0
		c0.2,0.7,0.3,1.4,0.5,2c0.1,0.5,0.2,0.9,0.3,1.4c0.4,2.3,0.5,3.9,0.5,3.9c0.1,0.6,0.2,1.2,0.3,1.7c0,0,0,0,0,0
		c-0.1,0.1-0.3,0.4-0.5,0.6c-0.4,0.5-1,1.3-1.6,2.2C108.9,193.5,108.2,194.6,107.7,195.6 M107.8,196.5c0-0.3-0.1-0.6-0.1-0.8
		c1.4-2.7,3.3-5.1,3.9-5.9c0,0.2,0.1,0.5,0.1,0.7C109.9,193,108.4,195.1,107.8,196.5 M107.6,197.8c0-0.1,0.3-0.3,0.3-0.3
		c0-0.3-0.1-0.7-0.1-1c0.7-1.3,2.2-3.5,3.9-5.9c0,0.2,0.1,0.4,0.1,0.5c-1.8,2.6-3.2,5-3.4,5.9c0,0.1,0,0.2,0,0.2c0,0,0,0,0,0
		c0-0.1,0-0.1,0-0.2c0.2-0.7,1.7-2.8,3.5-5.3c0,0.2,0.1,0.3,0.1,0.5c-1.2,1.7-2.1,3.1-2.5,4l0,0c0.4-0.9,1.3-2.3,2.5-4
		c0.1,0.4,0.1,0.8,0.2,1.1c-1,1.6-1.7,3-1.8,3.6l0,0l-1.6,0.4C107.9,197.8,107.6,197.9,107.6,197.8"/>
	<path id="XMLID_1857_" class="st2" d="M116.2,190.6C116.3,190.6,116.3,190.6,116.2,190.6C116.3,190.6,116.3,190.6,116.2,190.6
		C116.3,190.6,116.3,190.6,116.2,190.6 M115.6,190.7l0.5-1c0,0.1,0,0.2,0,0.2L115.6,190.7 M115.8,191.4c0-0.1,0.1-0.3,0.4-0.8
		c-0.1,0.3-0.2,0.6-0.2,0.7c0,0,0,0,0,0c0,0,0,0.1-0.1,0.1C115.9,191.4,115.9,191.5,115.8,191.4 M113.9,193.1
		c0.1-0.8,0.9-2.3,2.1-4.2c0,0.2,0.1,0.4,0.1,0.6C115.4,190.5,114.3,192.5,113.9,193.1L113.9,193.1 M111.7,193.2
		c0.2-1.1,1.8-3.8,3.8-6.8c0,0.2,0.1,0.5,0.1,0.7C113.6,190,112,192.4,111.7,193.2 M111.7,193.4c0,0,0-0.1,0-0.2
		C111.7,193.3,111.7,193.4,111.7,193.4C111.7,193.4,111.7,193.4,111.7,193.4 M111,192.5C111,192.4,111,192.4,111,192.5
		c0.8-1.7,2.4-4.1,4.4-7c0,0.1,0,0.2,0,0.3C113.5,188.5,111.8,191,111,192.5"/>
	<path id="XMLID_1856_" class="st2" d="M110.8,191.4c1.6-3.1,3.8-5.9,4.4-6.7c0,0,0,0,0,0c0,0,0,0,0,0c-0.1,0.2-0.3,0.4-0.6,0.7
		c-0.5,0.6-1.1,1.5-1.8,2.5C112.2,189,111.5,190.2,110.8,191.4C110.8,191.4,110.8,191.4,110.8,191.4"/>
	<path id="XMLID_1855_" class="st2" d="M113,192.2L113,192.2c0.4-1,1.5-2.6,2.8-4.5c0,0,0,0,0,0C114.4,189.6,113.4,191.2,113,192.2"
		/>
	<path id="XMLID_1852_" class="st2" d="M88.3,146.3C88.3,146.3,88.3,146.3,88.3,146.3C88.3,146.3,88.3,146.3,88.3,146.3 M88.8,149
		c0-0.1-0.1-0.6,0.5,0.5C89.1,149.2,88.9,149,88.8,149C88.8,149,88.8,149,88.8,149"/>
	<path id="XMLID_1843_" class="st2" d="M106,189.3c-0.4-1.8-0.7-3.9-1.1-6.1c-0.1-0.5-0.2-1.1-0.3-1.6c-0.3-1.8-0.7-3.6-1-5.4l0,0
		c0,0.1,0,0.1,0.1,0.2C104.5,181.1,105.3,185.6,106,189.3C106,189.3,106,189.3,106,189.3 M106.2,190.1c0-0.3-0.1-0.5-0.1-0.8
		c0,0,0,0,0,0C106.1,189.6,106.2,189.9,106.2,190.1C106.2,190.1,106.2,190.1,106.2,190.1 M106.4,191c0-0.2-0.1-0.4-0.1-0.6
		c0,0,0,0,0,0C106.3,190.6,106.3,190.8,106.4,191C106.4,191,106.4,191,106.4,191 M106.6,192.2c0-0.2-0.1-0.4-0.1-0.5c0,0,0,0,0,0
		C106.5,191.9,106.6,192,106.6,192.2C106.6,192.2,106.6,192.2,106.6,192.2 M106.8,193.4c-0.1-0.4-0.2-0.8-0.2-1.2c0,0,0,0,0,0
		C106.7,192.7,106.8,193,106.8,193.4C106.8,193.4,106.8,193.4,106.8,193.4 M107,194.1C107,194.1,107,194.1,107,194.1
		C107,194.1,107,194.1,107,194.1C107,194.1,107,194.1,107,194.1L107,194.1 M107.1,194.9c0-0.1-0.1-0.3-0.1-0.4l0,0
		C107.1,194.6,107.1,194.7,107.1,194.9C107.1,194.9,107.1,194.9,107.1,194.9 M107.7,197.4c-0.1-0.2-0.3-1-0.5-2.3c0,0,0,0,0,0
		c0.2,0.9,0.3,1.6,0.4,2C107.6,197.2,107.7,197.3,107.7,197.4L107.7,197.4"/>
	<path id="XMLID_1837_" class="st2" d="M104.3,189.5c0-0.1,0-0.2-0.1-0.3c0,0,0,0,0,0C104.3,189.3,104.3,189.4,104.3,189.5
		C104.3,189.5,104.3,189.5,104.3,189.5 M104.6,190.8c0-0.2-0.1-0.5-0.1-0.7c0,0,0,0,0,0C104.5,190.3,104.6,190.6,104.6,190.8
		C104.6,190.8,104.6,190.8,104.6,190.8 M105.1,193.2c0-0.2-0.1-0.4-0.1-0.6c0,0,0,0,0,0C105,192.7,105,193,105.1,193.2
		C105.1,193.2,105.1,193.2,105.1,193.2 M105.1,193.6c0-0.1,0-0.2-0.1-0.3l0,0C105.1,193.3,105.1,193.4,105.1,193.6L105.1,193.6
		 M105.3,194.2c0-0.1,0-0.1,0-0.2c0,0,0,0,0,0C105.2,194,105.3,194.1,105.3,194.2C105.3,194.2,105.3,194.2,105.3,194.2"/>
	<path id="XMLID_1836_" class="st2" d="M104.1,188.5C104.1,188.5,104.1,188.4,104.1,188.5C104.2,188.4,104.1,188.4,104.1,188.5
		C104.1,188.4,104.1,188.4,104.1,188.5C104.1,188.4,104.1,188.5,104.1,188.5"/>
	<path id="XMLID_1835_" class="st2" d="M104.7,191.4C104.7,191.4,104.7,191.3,104.7,191.4C104.7,191.3,104.7,191.3,104.7,191.4
		C104.7,191.3,104.7,191.3,104.7,191.4C104.7,191.3,104.7,191.4,104.7,191.4"/>
	<path id="XMLID_1829_" class="st2" d="M109.6,178C109.6,178,109.6,178,109.6,178L109.6,178c0-0.2-0.3-1.4-0.8-3.1
		c0-0.1-0.1-0.3-0.1-0.4c0.2,0.8,0.4,1.5,0.6,2.1c0.1,0.5,0.2,0.8,0.3,1.1c0,0.1,0.1,0.2,0.1,0.3C109.7,178,109.7,178,109.6,178
		C109.6,178,109.6,178,109.6,178 M102.1,156.2L102.1,156.2 M102.1,156.2L102.1,156.2L102.1,156.2 M97.2,147.7L97.2,147.7
		c2.3,2.8,4.8,8.1,4.9,8.4l0,0c0.6,0.6,1.7,3.4,2.8,6.7c1.1,3.2,2.4,7,3.3,10c0.1,0.4,0.2,0.8,0.3,1.1c0,0.1,0.1,0.3,0.1,0.4
		c-0.9-3.1-2.4-7.7-3.7-11.5c-1.2-3.3-2.3-6-2.8-6.7l0,0l0,0l0,0c0,0,0,0,0,0C102,155.8,99.4,150.5,97.2,147.7 M113.2,196.5
		L113.2,196.5L113.2,196.5L113.2,196.5L113.2,196.5L113.2,196.5L113.2,196.5L113.2,196.5L113.2,196.5L113.2,196.5L113.2,196.5
		L113.2,196.5L113.2,196.5"/>
	<path id="XMLID_1821_" class="st2" d="M111.7,188.1c-0.5-3.2-1.1-6.6-1.7-8.9l0,0l0,0c0-0.1-0.4-1.6-0.9-3.7c0-0.1,0-0.1-0.1-0.2
		c-0.3-1.3-0.7-2.7-1.1-4.1c0-0.2-0.1-0.3-0.1-0.5c-0.7-2.5-1.4-4.9-1.8-6.3c-0.1-0.4-0.3-0.7-0.3-0.9l0,0c0.1,0.2,0.2,0.5,0.3,0.9
		c0.5,1.4,1.3,4.1,2,6.8c0,0.2,0.1,0.3,0.1,0.5c0.1,0.5,0.2,0.9,0.4,1.4c0.2,0.8,0.4,1.5,0.6,2.2c0,0,0,0,0,0c0.2,0.8,0.4,1.5,0.5,2
		c0.1,0.6,0.3,1,0.3,1.3c0,0.2,0.1,0.3,0.1,0.4l0,0.1l0,0l0,0l0,0C110.6,181.6,111.2,185,111.7,188.1
		C111.7,188.1,111.7,188.1,111.7,188.1 M111.8,189c0-0.3-0.1-0.5-0.1-0.8c0,0,0,0,0,0C111.8,188.4,111.8,188.7,111.8,189
		C111.9,189,111.9,189,111.8,189 M112,189.9c0-0.2-0.1-0.4-0.1-0.6c0,0,0,0,0,0C111.9,189.4,112,189.6,112,189.9
		C112,189.8,112,189.8,112,189.9 M112.2,191.2c0-0.2-0.1-0.4-0.1-0.5c0,0,0,0,0,0C112.2,190.8,112.2,191,112.2,191.2
		C112.2,191.1,112.2,191.1,112.2,191.2 M112.4,192.4c-0.1-0.4-0.1-0.8-0.2-1.2c0,0,0,0,0,0C112.3,191.6,112.4,192,112.4,192.4
		C112.4,192.4,112.4,192.4,112.4,192.4 M112.6,193.9c0-0.1,0-0.3-0.1-0.4l0,0C112.6,193.6,112.6,193.7,112.6,193.9
		C112.7,193.8,112.6,193.8,112.6,193.9 M113.1,196.6C113.1,196.5,113.1,196.5,113.1,196.6c0-0.1-0.1-0.2-0.1-0.3
		c-0.1-0.4-0.2-1.1-0.4-2.1c0,0,0,0,0,0C112.9,195.4,113.1,196.4,113.1,196.6L113.1,196.6L113.1,196.6L113.1,196.6L113.1,196.6
		L113.1,196.6L113.1,196.6L113.1,196.6"/>
	<path id="XMLID_1816_" class="st2" d="M104.6,189.2c0-0.1,0-0.2,0-0.3c0,0,0,0,0,0C104.5,189,104.5,189.1,104.6,189.2
		C104.6,189.2,104.6,189.2,104.6,189.2 M104.8,190.6c0-0.2-0.1-0.5-0.1-0.8c0,0,0,0,0,0C104.7,190,104.7,190.3,104.8,190.6
		C104.8,190.5,104.8,190.5,104.8,190.6 M105.2,193.4c-0.1-0.3-0.1-0.7-0.2-1.1c0,0,0,0,0,0C105.1,192.7,105.2,193,105.2,193.4
		L105.2,193.4 M105.3,194.1c0-0.1,0-0.2,0-0.3c0,0,0,0,0,0C105.3,193.9,105.3,194,105.3,194.1C105.4,194,105.3,194.1,105.3,194.1"/>
	<path id="XMLID_1815_" class="st2" d="M104.4,188.1C104.4,188.1,104.4,188.1,104.4,188.1C104.4,188.1,104.4,188.1,104.4,188.1
		C104.4,188.1,104.4,188.1,104.4,188.1C104.4,188.1,104.4,188.1,104.4,188.1"/>
	<path id="XMLID_1814_" class="st2" d="M104.9,191.1C104.9,191.1,104.9,191.1,104.9,191.1C104.9,191.1,104.9,191.1,104.9,191.1
		C104.9,191.1,104.9,191.1,104.9,191.1C104.9,191.1,104.9,191.1,104.9,191.1"/>
	<line id="XMLID_1813_" class="st2" x1="104.6" y1="180.1" x2="104.6" y2="180.1"/>
	<path id="XMLID_1810_" class="st2" d="M104.9,167.8L104.9,167.8L104.9,167.8 M97.4,151.5L97.4,151.5c1.8,2.1,5.9,11.7,7.2,15.1
		c0.1,0.2,0.2,0.4,0.2,0.6c0.1,0.2,0.1,0.3,0.1,0.5c0,0.1,0,0.2,0,0.2l0,0l0,0l0,0l0,0c0,0-0.1-0.3-0.2-0.6c0-0.1-0.1-0.3-0.2-0.5
		C103.3,163.4,99.2,153.6,97.4,151.5"/>
	<path id="XMLID_1809_" class="st2" d="M96.8,155.9c1,0.8,5.5,11.7,6.8,15.4c0.2,0.6,0.4,1.1,0.4,1.2l0,0l0,0c0,0,0-0.1-0.1-0.3
		c-0.1-0.2-0.2-0.5-0.3-0.9C102.3,167.6,97.8,156.7,96.8,155.9L96.8,155.9"/>
	<path id="XMLID_1796_" class="st2" d="M136.1,156.2c-0.4-1.7-0.6-3-0.6-3c0,0,0.1,0.1,0.1,0.2c0.2,0.5,0.4,1.6,0.7,2.9L136.1,156.2
		 M135.2,155.7c-0.3-1.2-0.4-2.1-0.4-2.1c0,0.1,0.1,0.2,0.1,0.3c0.1,0.4,0.3,1.1,0.6,1.9L135.2,155.7 M133.9,156.1
		c-0.1-0.7-0.4-1.6-0.4-1.7c0,0,0,0,0,0c0.1,0.2,0.2,0.5,0.4,0.9c0.1,0.2,0.1,0.4,0.2,0.6C134,155.9,134,156,133.9,156.1
		 M133.9,156.1C133.9,156.1,133.9,156.1,133.9,156.1c0.1-0.1,0.1-0.2,0.2-0.3c0,0,0,0,0,0C134.1,156,134,156,133.9,156.1 M134,156.6
		c0-0.1,0-0.3-0.1-0.5c0.1-0.1,0.1-0.2,0.2-0.3c0,0.1,0.1,0.3,0.1,0.4C134.2,156.4,134.1,156.5,134,156.6 M133.8,156.3
		c0-0.1,0-0.3-0.1-0.4L133.8,156.3C133.8,156.3,133.8,156.3,133.8,156.3 M133.8,156.4C133.8,156.4,133.8,156.4,133.8,156.4
		c0-0.1,0-0.1,0.1-0.2l0,0C133.8,156.3,133.8,156.4,133.8,156.4 M133.8,156.9c0-0.2-0.1-0.3-0.1-0.5c0,0,0.1-0.1,0.1-0.1l0.1,0.4
		C133.9,156.8,133.9,156.8,133.8,156.9 M133.5,156.7c0-0.2-0.1-0.4-0.1-0.6c0.1,0.1,0.1,0.3,0.2,0.4
		C133.5,156.6,133.5,156.7,133.5,156.7 M133.5,156.8C133.5,156.8,133.5,156.8,133.5,156.8c0-0.1,0.1-0.2,0.1-0.2c0,0,0,0,0,0.1
		C133.6,156.7,133.5,156.8,133.5,156.8 M133.6,157.3c0-0.2,0-0.3-0.1-0.4c0-0.1,0.1-0.1,0.1-0.2c0.1,0.1,0.1,0.2,0.2,0.3
		C133.7,157.1,133.6,157.2,133.6,157.3 M137.3,183c0,0,0.3-0.2,0.3-0.2c-0.6-9.3-1.9-16.3-2.8-20.3c0.3-0.4,0.6-0.8,1-1.2
		c0.5,1.7,0.9,3.2,1.1,3.6c0,0.1,0.1,0.1,0.1,0.1c0-0.1,0-0.4,0-0.8c0,0.2,0.1,0.3,0.1,0.4c0,0,0,0.1,0,0.1l0,0l0,0l0,0l0,0l0,0l0,0
		l0,0c0-0.1-0.1-0.2-0.1-0.5c-0.1-0.8-0.3-2.1-0.6-3.6c0.1-0.2,0.3-0.4,0.4-0.5c0.6,2.2,1.1,4.2,1.3,4.8c0,0.1,0.1,0.2,0.1,0.2
		c0-0.3-0.6-2.7-1.2-5.2c0,0,0,0,0.1-0.1c0.2,1.1,0.5,2.3,0.8,3.5c1.1,4.5,2.4,8.9,2.4,9c0,0,0,0,0,0c0.7,2.4,0.7,4.4,0.7,4.4
		c0.9,4.6,0.8,5.1,0.8,5.1l-1,0.4l-1,0.2l-1.4,0.4C137.5,183,137.3,183.1,137.3,183"/>
	<path id="XMLID_1792_" class="st2" d="M135.8,159.6c-0.2-1.1-0.5-2.2-0.7-3.1l0.2,0.1C135.4,157.4,135.6,158.4,135.8,159.6
		C135.8,159.5,135.8,159.5,135.8,159.6 M135.2,160.3c-0.3-1.5-0.6-3.1-0.9-4.3l0.3,0.1c0.3,0.9,0.6,2.1,0.9,3.3
		c0,0.1,0.1,0.3,0.1,0.4C135.5,160,135.3,160.1,135.2,160.3 M133.9,161.9c-0.5-2-0.8-3.1-0.8-3.2c0,0,0,0,0,0
		c-0.1-0.5-0.1-1-0.2-1.3c0.1-0.1,0.1-0.2,0.2-0.2c0.2,0.5,0.4,1,0.4,1l-0.2-0.7c0-0.1,0-0.3-0.1-0.4c0-0.1,0.1-0.1,0.1-0.2l0,0.1
		c0,0,0-0.1,0-0.1c0.1-0.1,0.1-0.2,0.2-0.3c0.3,1,0.7,2.4,1.1,3.7c0.1,0.2,0.1,0.4,0.2,0.6C134.5,161.2,134.2,161.6,133.9,161.9"/>
	<path id="XMLID_1788_" class="st2" d="M133.2,156.4C133.2,156.4,133.2,156.4,133.2,156.4c0-0.1,0.1-0.2,0.1-0.2c0,0,0,0,0,0
		C133.3,156.2,133.3,156.3,133.2,156.4 M133.1,156.6C133.1,156.6,133.1,156.6,133.1,156.6c0,0,0-0.1,0.1-0.1L133.1,156.6
		C133.1,156.6,133.1,156.6,133.1,156.6 M132.8,157C132.8,157,132.8,157,132.8,157c0-0.1,0.1-0.1,0.1-0.2c0,0,0,0,0,0
		C132.9,156.9,132.9,157,132.8,157"/>
	<path id="XMLID_1784_" class="st2" d="M133.2,156.3C133.2,156.3,133.2,156.3,133.2,156.3c0-0.1,0.1-0.1,0.1-0.2c0,0,0,0,0,0
		C133.3,156.2,133.3,156.3,133.2,156.3 M133.1,156.6C133.1,156.6,133.1,156.6,133.1,156.6C133.1,156.5,133.1,156.5,133.1,156.6
		L133.1,156.6C133.1,156.5,133.1,156.5,133.1,156.6 M132.8,156.9C132.8,156.9,132.8,156.9,132.8,156.9c0-0.1,0.1-0.1,0.1-0.1
		c0,0,0,0,0,0C132.9,156.8,132.9,156.9,132.8,156.9"/>
	<path id="XMLID_1783_" class="st2" d="M133.2,156.2c0,0,0.1,0.1,0.2,0.3c0-0.1-0.1-0.2-0.1-0.3
		C133.3,155.9,133.2,156.2,133.2,156.2"/>
	<path id="XMLID_1776_" class="st2" d="M135.7,156.9c-0.2-1-0.5-2.6-0.9-3.7l0,0C135.2,154.3,135.5,155.9,135.7,156.9L135.7,156.9
		 M137.2,164c0-0.1,0-0.2-0.1-0.2c-0.4-1.7-0.8-3.4-1.1-4.6c0,0,0,0,0,0C136.4,160.4,136.8,162.2,137.2,164 M140.3,178.4
		C140.3,178.4,140.3,178.4,140.3,178.4L140.3,178.4L140.3,178.4 M140.3,178.4L140.3,178.4L140.3,178.4L140.3,178.4 M140.2,178.4
		c-0.1-0.3-1-5-1.8-9.5c0,0,0,0,0-0.1c-0.1-0.4-0.7-2.5-1.2-4.8c0,0.1,0.1,0.2,0.1,0.3c0.5,2.2,1,4.1,1.1,4.5l0,0l0,0l0,0
		c0,0,0,0,0,0c0.4,2.3,0.9,4.7,1.2,6.5c0.2,0.9,0.3,1.7,0.4,2.2c0.1,0.3,0.1,0.5,0.1,0.6C140.2,178.3,140.2,178.3,140.2,178.4
		 M140.2,178.4C140.2,178.4,140.2,178.4,140.2,178.4C140.2,178.4,140.2,178.4,140.2,178.4L140.2,178.4"/>
	<path id="XMLID_1773_" class="st2" d="M139.4,162.1L139.4,162.1 M139.8,164.2c-0.2-1-0.4-1.8-0.4-2.1l0,0l0,0
		c0-0.1-0.1-0.6-0.3-1.4l0,0c0.1,0.8,0.2,1.3,0.3,1.3c0,0,0,0,0,0l0,0C139.4,162.4,139.6,163.2,139.8,164.2
		C139.8,164.2,139.8,164.2,139.8,164.2"/>
	<path id="XMLID_1772_" class="st2" d="M142.1,182.1L142.1,182.1C142.1,182.1,142.1,182.1,142.1,182.1
		C142.1,182.1,142.1,182.1,142.1,182.1c-0.1-0.9-1.1-8.6-2-12l0,0l0,0l0,0c-0.2-0.5-2-7.9-2.6-9.9c0-0.1-0.1-0.2-0.1-0.3
		c0,0,0-0.1,0-0.1l0,0c0,0.1,0.1,0.2,0.1,0.4c0,0.1,0.1,0.3,0.1,0.5c0.4,1.6,1.2,4.7,1.8,6.9c0,0,0,0,0,0c0.3,1.3,0.6,2.3,0.7,2.5
		l0,0l0,0c0.9,3.2,1.8,10,2,11.6C142.1,181.9,142.1,182,142.1,182.1C142.1,182.1,142.1,182.1,142.1,182.1
		C142.1,182.1,142.1,182.1,142.1,182.1C142.1,182.1,142.1,182.1,142.1,182.1"/>
	<path id="XMLID_1771_" class="st2" d="M134,155.9C134,155.9,134,155.9,134,155.9c-0.1-0.4-0.2-0.8-0.2-1l0,0
		C133.8,155.2,133.9,155.5,134,155.9"/>
	<path id="XMLID_1770_" class="st2" d="M135,160.5C135,160.5,135,160.5,135,160.5c-0.4-1.6-0.8-3.4-1-4.6c0,0,0,0,0,0
		C134.2,157.1,134.7,158.9,135,160.5"/>
	<path id="XMLID_1769_" class="st2" d="M135.3,159.8C135.4,159.8,135.4,159.8,135.3,159.8L135.3,159.8L135.3,159.8L135.3,159.8
		L135.3,159.8L135.3,159.8L135.3,159.8L135.3,159.8c0-0.1-0.1-0.3-0.2-0.6c-0.2-0.9-0.6-2.5-1.1-4.3c0,0,0,0,0,0
		c0.4,1.9,0.8,3.5,1.1,4.4C135.3,159.5,135.3,159.7,135.3,159.8"/>
	<path id="XMLID_1764_" class="st2" d="M133,157.7c-0.1-0.3-0.1-0.5-0.1-0.6l0,0C132.9,157.2,132.9,157.4,133,157.7
		C133,157.7,133,157.7,133,157.7 M133,157.8c0,0,0-0.1,0-0.1c0,0,0,0,0,0C133,157.7,133,157.7,133,157.8
		C133,157.8,133,157.8,133,157.8 M133.1,158.1c0-0.1-0.1-0.2-0.1-0.3c0,0,0,0,0,0C133.1,157.9,133.1,158,133.1,158.1
		C133.1,158.1,133.1,158.1,133.1,158.1 M135.3,166.2c-0.1-0.4-0.6-2-1-3.7c0,0,0,0,0,0C134.7,164.2,135.2,165.8,135.3,166.2
		L135.3,166.2L135.3,166.2L135.3,166.2L135.3,166.2L135.3,166.2L135.3,166.2L135.3,166.2L135.3,166.2L135.3,166.2L135.3,166.2"/>
	<path id="XMLID_1763_" class="st2" d="M133.5,162.4C133.6,162.4,133.6,162.4,133.5,162.4c-0.4-1.6-0.9-3.3-1.1-4.3c0,0,0,0,0,0
		C132.7,159.1,133.1,160.8,133.5,162.4"/>
	<polyline id="XMLID_1762_" class="st2" points="132.3,157.8 132.3,157.8 132.3,157.8 132.3,157.8 132.3,157.8 	"/>
	<polyline id="XMLID_1761_" class="st2" points="133,157.7 133,157.7 133,157.7 133,157.7 133,157.7 	"/>
	<line id="XMLID_1760_" class="st2" x1="133.5" y1="163.6" x2="133.5" y2="163.6"/>
	<path id="XMLID_1759_" class="st2" d="M135.4,178.5c-0.6-3.1-1.6-9.9-2.3-10.3c-0.8-0.4-1.7,0.4-1.7,0.4l2.3-2.4l2,12.9
		L135.4,178.5"/>
	<path id="XMLID_1758_" class="st2" d="M127.6,175l-6.3,9.9c-0.4,1.5-0.1,2.9,0.9,3.5c-0.5-0.3-2.4-0.1-3.6,0.8l-0.5,0.7
		c-0.2,1,0,1.8,0.6,2.2c-0.3-0.2-1.5,0-2.3,0.5l-4.7,7.5l-7.7-2.4l7.1,0.9L127.6,175"/>
	<polyline id="XMLID_1757_" class="st2" points="135.2,181.2 135.7,183.8 143.3,182.2 139.9,165.1 144.5,182.9 135.2,185 
		135.2,181.2 	"/>
	<polyline id="XMLID_1756_" class="st2" points="139.1,157.3 133.4,154.5 124.6,168.1 133.1,152.8 139.1,157.3 	"/>
	<path id="XMLID_1755_" class="st2" d="M107.5,191.9c0,0.4-0.1-0.2,0,0.2C107.5,192.1,107.6,192,107.5,191.9"/>
	<path id="XMLID_1754_" class="st2" d="M91.2,161.5c0.5,1-0.3,2.9-1.7,2.4c-0.1,0,0,0.1-0.3,0.1c-1.2-0.3-2.5-1.9-1.8-3.4l-0.1,0.1
		c0.1-0.3,0.3-0.5,0.5-0.7c0,0-0.1,0.1-0.1,0c0.1,0,0.3-0.4,0.4-0.5c0.1-0.1,0-0.1,0.1-0.3l0.2-0.1c0.5-0.1,1-0.6,1.6-0.5
		c0,0-0.1,0,0-0.1c1,0.1,2.1,0.6,2.9,1.4c0,0,0-0.1,0.1-0.1c0,0.1,0.2,0.3,0.4,0.6c0.2,0,0.3,0.4,0.5,0.7l0,0
		c0.1,0.3,0.2,0.3,0.2,0.5l0.1,0.1c-0.1,0.2,0.2,0.3,0.2,0.5l0,0c0,0.2,0.1,0.3,0.1,0.4l0,0c0.1,0.4,0.1,0.6,0,0.6
		c0.1,0.1,0-0.4,0.1-0.2c0,1.4-0.6,2.8-1.9,3.4c-0.1,0.1-0.2,0.1-0.2,0.2c-0.1,0-0.5,0.2-0.6,0.2c0,0-0.1,0.1-0.2,0.1
		c-0.2,0.1-0.3-0.1-0.6,0c0.1,0,0.2,0,0.1,0.1c-0.2-0.1-0.6,0.1-0.8,0l0.1,0.1c-0.3-0.1-0.6-0.1-0.8-0.2l0.1,0.1
		c-0.4,0-0.1-0.1-0.5-0.1c0.1,0,0,0,0.1,0.1c-0.3-0.2-0.8-0.4-1.1-0.5l0,0c-0.4-0.1-0.7-0.3-1-0.6c-0.1-0.1,0,0.1-0.4-0.1
		c0.1-0.1-0.5-0.4-0.2-0.4c-0.3-0.2-0.6-0.6-0.8-0.8c0.1,0.1-0.2,0,0,0.2l-0.2-0.1c0,0.1,0.2,0.2,0.1,0.1c-0.1-0.1-0.3-0.5-0.4-0.6
		c-0.1-0.3-0.1-0.5-0.2-0.9c0,0.2-0.2-0.1-0.1,0.1l0-0.6c0-0.1-0.1,0-0.1-0.2c0,0,0-0.1,0-0.2c0,0-0.1-0.6-0.2-0.6
		c-0.1-0.1,0,0.2,0,0.1c0-0.3,0-0.3,0-0.5l0,0c0-0.2,0-0.5,0.1-0.3c0,0.1-0.1,0,0,0.1c0.1-0.1,0-0.4,0.1-0.7c0,0.1-0.1,0.1-0.1,0.1
		c0.2-0.3,0.2-0.7,0.4-1c0.1,0-0.1,0.1-0.1,0.2c0.1-0.5,0.4-0.9,0.6-1.3c0,0,0,0.1,0,0.1c0.1-0.2,0.1-0.2,0.2-0.3
		c0,0,0.1-0.1,0.3-0.2c0.1,0,0,0-0.1,0.1c0.2-0.2,0.9-0.7,1.3-1c0,0,0.3-0.1,0.4-0.1l-0.1,0c0.1-0.1,0.3-0.2,0.3-0.2
		c0.3-0.1-0.9,0.4-0.6,0.3c0-0.1,0.5-0.1,0.3-0.2c0.2-0.1,0.5-0.1,0.6-0.3c-0.1,0-0.2,0,0-0.1c0.3-0.1,0.1,0,0.4-0.1l0.2,0
		c0,0.1,0.3-0.1,0.2,0c0-0.1,0.5,0,0.4-0.1l-0.1-0.1c0.1,0,0.2,0.1,0.4,0.1l0,0c0,0.1,0.3,0,0.5,0.1c0.3,0,0.8,0.1,0.9,0
		c0.2,0.1,0.4,0.2,0.7,0.2l-0.1-0.1c0.2,0,0.2,0.1,0.3,0.1c0,0,0.3,0,0.5,0.1c0.2,0.1,0.1,0.2,0.1,0.2c0.3,0,0.5,0.4,0.8,0.4
		c-0.1-0.1-0.3-0.2-0.1-0.2c0.3,0,0.3,0.3,0.6,0.5l-0.1,0c0.2,0,0.4,0.4,0.4,0.3c0.1,0.1,0.3,0.2,0.2,0.3c0.5,0.3,0.9,1,1.2,1.2
		c0,0.1,0.2,0.2,0.1,0.2c-0.1-0.1-0.1-0.2-0.1-0.2c0,0.1,0,0.1,0,0.1c0.1,0.1,0.2,0.3,0.2,0.1c0.3,0.3,0.1,0.5,0.4,0.9
		c0,0,0.1,0,0.1,0.1l0.1,0.3c0.2,0.3,0.2,0.1,0.3,0.1c0.1,0.2,0.2,0.3,0.2,0.4l0.2,0.1c-0.1-0.1,0,0.2,0,0.2l0-0.1
		c0,0,0.1,0.2,0.2,0.3c-0.1,0-0.2-0.2-0.2-0.3c0,0.1,0.1,0.2,0.1,0.3c0-0.1,0.2,0.2,0.2,0.4c0.1,0.1,0,0.2,0,0.2
		c0,0,0.1,0.2,0.1,0.1c0-0.1-0.1-0.1-0.1-0.2c0.1,0.1,0.1,0,0.2,0.3c0,0.2-0.2,0,0,0.3c0-0.1,0-0.1,0-0.2l0.2,0.2l-0.1,0l0,0
		c0,0.1,0.2,0.4,0.1,0.5c0,0.1,0.2,0.3,0.2,0.4l0,0c0.1,0.1,0.2,0.4,0.2,0.5l0,0c0,0.1,0.1,0.3,0.1,0.4c0.1,0.2,0.3,0,0.3,0.3
		c0.1,0.2,0,0.4-0.1,0.3c0.2,0.4,0.2,0.9,0.5,1.3c0,0.1,0,0,0,0.2c0.2,0.6,0.4,1.3,0.6,1.8c0-0.2,0.1,0,0.1,0c0,0.2,0.1,0.2,0,0.2
		c-0.1,0-0.1,0-0.2-0.1c0.1,0.4,0.2,0.9,0.3,1.1c-0.1-0.1-0.1,0,0,0.1c0.1-0.1,0.2,0.2,0.2,0.4l0,0l0.1,0.1c0,0.1-0.1,0.1,0,0.3
		l0.1,0c0,0.2,0,0.6,0.1,0.8l0.1,0.2c0,0.1,0,0.3-0.1,0.1c0.1,0.4,0.2,0.6,0.3,0.8c0,0.7,0.2,1.7,0.4,2.5l0,0c0.1,0.2-0.1,0.1,0,0.3
		c0-0.1,0.1,0.1,0.1,0c0.1,0.3,0,0.4,0,0.6c-0.1,0,0-0.2-0.1-0.1c0,0,0.1,0.4,0.1,0.5c0,0.1,0.1,0,0.1,0l0,0.2
		c0.1,0.2,0.1-0.6,0.3-0.3l0,0.2c0.1,0.2,0-0.5,0.1,0c0,0.2-0.1,0.4-0.2,0.2c0,0.4-0.2,0.2-0.1,0.7c0.1,0.1,0-0.3,0-0.3
		c0.1,0.2,0,0.4,0.1,0.6c-0.1-0.2-0.1,0-0.1,0.1c0.1,0.2,0.1-0.2,0.1,0.2c0,0.1,0,0.4-0.1,0.1c-0.1,0.1,0.1,0.3,0,0.5
		c0.1,0.1,0.1-0.3,0.2,0c-0.1,0,0,0.4-0.2,0.3c0,0.1,0.1,0.1,0.1,0c0.1,0.2-0.1,0.5,0.1,0.5l-0.1,0.1c0,0.1,0.1,0.1,0.1,0.2
		c0,0.2,0,0.6,0.1,0.5c0,0.1,0.1,0.4,0,0.3c-0.1-0.2,0-0.3-0.1-0.4c0.1,0.2,0,0.3,0,0.5l0.1,0c0,0.1,0,0.3,0,0.3c0-0.1,0.1,0,0.1,0
		l-0.1,0.1c0,0.3,0.1,0.1,0.2,0.4l0-0.3c0,0.1,0.1,0.2,0.1,0.3c-0.1,0.1-0.1,0.2-0.2,0.3c0,0.2,0.1,0.1,0,0.3l0-0.2
		c0,0,0.1,0.1,0.2,0.4c0,0.2-0.1,0.4-0.1,0.2c0,0.1,0.1,0.3,0.1,0.2c0,0.3-0.1,0-0.1,0.2c0.1,0.1,0.2,0.4,0.2,0.6l0.1-0.3l0,0.2
		c0.1-0.2,0.1,0.1,0.2,0c0,0.1,0,0.3,0,0.4c-0.2-0.3-0.2,0.4-0.3,0.3c0,0.5,0.4,0.2,0.2,0.7c0-0.1-0.1,0.2-0.1-0.1
		c0,0.3-0.1,0.2,0,0.5c0-0.3,0.2,0.3,0.2-0.1c0,0-0.1-0.2-0.1-0.3c0.1,0.1,0.1,0,0.2,0.3c0,0.2,0,0.4,0,0.4c-0.1,0,0-0.3-0.1-0.1
		c0,0.4,0.1,0.4,0,0.6c0-0.2-0.1-0.3-0.2-0.3l0,0.3l0-0.1c0.1,0.4-0.1,0.1,0,0.5l0.1,0.2c0.1-0.1-0.1-0.6,0-0.5c0,0.3,0,0.4,0,0.6
		l0-0.2c0,0.1,0.2,0.2,0.1,0.6c0,0.2,0,0.1-0.1,0.1c0,0.4,0,0.6,0,0.8c0.1-0.1,0.1,0.5,0.1,0.2c-0.1-0.1-0.1-0.7-0.1-0.9
		c0.1,0.1-0.1-0.3,0.1-0.4c0,0.3,0.2,0.3,0.2,0.4c0,0.1,0,0.2,0,0.2c-0.1,0-0.1-0.1-0.2-0.1c0.1,0.4,0.1,0.7,0,1
		c0.1,0.1,0.1,0.1,0.1-0.1c0,0.5,0.1,0.9,0.2,1.4c-0.2-0.3,0,0.5-0.1,0.3c-0.1-0.2-0.2-0.4-0.2-0.3c0,0.1,0.1,0,0.1,0
		c0,0.2,0.1,0.3,0,0.5c0-0.4,0.1-0.1,0.2-0.2c0,0.3,0.1,0,0.1,0.3c0,0.3,0,0.7,0,1c0.1,0.4,0.1,1,0.1,1.4c0.1,0.2,0.2,0,0.2,0.3
		c0,0.2-0.1-0.2,0,0.2l0,0c0,0.1,0.1,0.7,0,0.8l0.1-0.1l0,0.2c0,0,0.1,0.1,0.1,0c0.1,0.2,0,0.5,0.1,0.7l-0.1-0.1
		c0,0.4,0.1,0.7,0.1,1.1l0.1,0l0,0.2c0.1-0.1,0.1,0.1,0.1,0.3l0.1-0.6c-0.1-0.2-0.1,0.2-0.1,0.1c-0.1-0.1-0.1-0.5,0-0.5
		c0,0.1,0,0.2,0,0.3c0.1,0,0.1-0.2,0.1-0.3c0,0.1,0,0.2,0,0.2c0-0.2,0-0.3,0-0.5c0,0.2-0.1-0.1-0.1,0c0.1,0,0.1-0.3,0-0.6
		c-0.1-0.2,0-0.6-0.1-0.9c-0.1,0.2-0.1,0.3-0.1,0.6c-0.1-0.2,0-0.2-0.1-0.5c0.1-0.1,0.1-0.2,0.1-0.5l-0.1,0c0-0.3,0.1-0.3,0-0.6
		c-0.1-0.6-0.1-1.2-0.2-1.6l-0.1,0c0.1-0.3,0-0.8,0-1.1c-0.1-0.5-0.1-1.2-0.2-1.5c-0.1-1-0.1-1.8-0.2-2.9l-0.1,0.2
		c0-0.2-0.1-0.1-0.1-0.3c0.1,0.2,0.1-0.3,0.1-0.4c-0.1-0.4-0.1-1-0.1-1.4l-0.1,0c0.1-0.4-0.1-0.9-0.2-1.4c0-0.1-0.1-0.1-0.1-0.3
		c0.1-0.3,0-0.4,0-0.8c0-0.3-0.1-0.8-0.2-1.1c-0.1-1.1-0.3-2.2-0.5-3.4l-0.1-0.1c-0.1-1.1-0.5-2.5-0.6-3.4l-0.1,0.1
		c-0.1-0.3-0.1-0.7,0-0.6c-0.1-0.3-0.1-0.7-0.3-0.9c-0.1-0.3,0-0.4-0.1-0.6c-0.2-0.6-0.3-0.8-0.4-1.4l0,0.1c0,0.1-0.1,0.1-0.1,0
		c0-0.2-0.2-0.8,0-0.6c-0.3-0.6-0.4-1.4-0.7-1.9c0.1,0,0-0.1,0-0.2c-0.2-0.5-0.4-1-0.5-1.5c-0.1-0.1,0,0.2-0.1-0.1c0-0.1,0,0,0-0.2
		c-0.3-0.9-0.7-1.6-1.1-2.4c-0.5-1.3-1.4-2.6-2.2-3.8l0,0c-0.2-0.5-0.8-0.8-1-1.2c-0.1-0.1-0.3-0.3-0.3-0.2
		c-0.2-0.3-0.9-0.6-1.3-0.9l0.1,0.1c-0.5-0.2-0.9-0.5-1.5-0.6c0.1,0,0.2,0.1,0.2,0.1c-0.2,0-0.5-0.3-0.6-0.2c-0.1,0-0.1-0.1,0-0.1
		c-1.3-0.3-2.7-0.2-4,0.4c-0.8,0.5,0.1,0.2-0.7,0.5c0,0.1-0.1,0-0.1,0c-0.3,0.1-0.3,0.4-0.5,0.5c0-0.1-0.1,0-0.2,0
		c-0.4,0.4-0.4,0.6-0.8,0.9l0.1,0c-0.4,0.4-0.8,0.9-1,1.3c-1.1,3,0.4,6.4,3,7.9c2.4,1.6,6.7,1.4,7.8-2.1c0-0.8,0.1-0.8,0.1-1.6
		c0,0,0,0.1,0,0c0.1-0.1-0.1-0.6,0-0.7c-0.3-1.1-0.9-2-1.7-2.8c0.1,0.1,0.1,0.3,0,0.1l-0.1-0.2l0,0c-0.1-0.1-0.2-0.2-0.1-0.2
		c-1.1-0.9-2.6-1.6-4.3-1.1c-1.6,0.7-2.2,2.2-2.3,3.8c0.1,0.8,0.7,1.8,1.5,2.2c1,0.5,2.5,0.5,3.3-0.6c0.6-1.2,0-2.3-0.5-3.2
		C90.9,160.3,90.9,160.7,91.2,161.5"/>
	<path id="XMLID_1753_" class="st2" d="M107.5,191.4c-0.1-0.1-0.1-0.3-0.2-0.1C107.3,191.3,107.4,191.5,107.5,191.4"/>
	<path id="XMLID_1752_" class="st2" d="M91,185.1l0-0.1c0,0.1,0,0.2,0,0.2C91,185.1,91,185.1,91,185.1"/>
	<path id="XMLID_1751_" class="st2" d="M96.4,187.7c0,0,0,0.4,0,0.6L96.4,187.7"/>
	<path id="XMLID_1750_" class="st2" d="M96,186C96,185.9,96,185.9,96,186L96,186"/>
	<path id="XMLID_1749_" class="st2" d="M96.1,185.9c0-0.1-0.1-0.2-0.1-0.3C96.1,185.6,96.1,186,96.1,185.9"/>
	<path id="XMLID_1748_" class="st2" d="M95.6,182.3c0-0.1,0-0.3-0.1-0.4C95.6,182,95.5,182.4,95.6,182.3"/>
	<path id="XMLID_1747_" class="st2" d="M95.4,180.6l0-0.1C95.4,180.4,95.4,180.5,95.4,180.6L95.4,180.6"/>
	<polyline id="XMLID_1746_" class="st2" points="85.6,152.4 85.7,152.5 85.7,152.4 85.6,152.4 	"/>
	<path id="XMLID_1745_" class="st2" d="M106.5,155.9c0-0.2,0.1,0,0-0.1L106.5,155.9"/>
	<path id="XMLID_1744_" class="st2" d="M118.9,177.6c-0.5,0.3-0.6,1-1.1,1.3c0,0,0.1,0.1,0,0.2c-0.5,0.3-0.8,1.1-1,1.7l0.1,0
		c0,0.1-0.2,0.2-0.3,0.3l0.1,0c-0.1,0-0.2,0.2-0.2,0.2c0,0.1,0.1,0.1,0.1,0.2l-0.1,0c-0.3,0-0.3,0.4-0.5,0.6l0.1,0
		c-0.4,0.3-0.6,0.8-1,1.2l0.1,0.1c-0.1,0-0.2,0.1-0.3,0.2c0.1,0.1-0.2,0.1-0.2,0.3l0,0c-0.2,0,0,0.2-0.2,0.2l0,0.1
		c-0.1,0,0,0.2-0.1,0.2l0,0c-0.1,0.1,0,0.1-0.1,0.2l0,0c-0.1,0.1-0.1,0.3-0.2,0.2c0,0.1,0.1-0.1,0.2,0c-0.5,0.5-0.8,1-1.2,1.6
		c0,0.1,0,0.1,0,0.2c-0.1,0.1-0.1,0.1,0,0l-0.1-0.1c0-0.1,0.1-0.1,0.1-0.3l-0.1,0.1c0.1-0.1,0.1-0.3,0.1-0.4l-0.1,0.1
		c0.1-0.1,0-0.3,0-0.4l-0.1,0.1c-0.1-0.2,0.1-0.1,0.1-0.2l-0.1,0c0.1-0.2,0.1-0.4,0.1-0.6l0,0c0-0.2,0-0.4,0-0.6
		c0-0.1-0.2,0-0.1-0.2c0.1,0,0-0.3,0.2-0.2c0-0.2-0.1-0.4-0.1-0.5c0,0.1-0.2-0.1-0.2,0.1l-0.1-0.1c-0.1,0,0,0.1,0,0.1
		c0-0.1,0-0.3,0-0.3c0.1-0.1,0.2-0.3,0.2-0.5c0,0.1-0.1,0-0.2,0l0.2-0.3c0-0.1-0.1,0-0.1-0.1l0.1-0.1c0,0,0-0.3-0.1-0.3
		c-0.1,0,0,0.1-0.1,0c0-0.1,0-0.1,0-0.3l0,0c0-0.1,0-0.2,0.1-0.2c0,0.1-0.1,0,0,0.1c0.1-0.1,0.1-0.2,0.1-0.3l-0.1,0.1
		c0.1-0.2,0.1-0.4,0.1-0.5c0.1,0-0.1,0.1-0.1,0.1c-0.1-0.2,0.1-0.5-0.1-0.7l0.1,0c0-0.1-0.1-0.1-0.1-0.2c-0.1,0,0-0.1,0-0.2
		c0,0,0,0,0,0c0-0.1,0.1-0.5,0-0.8c0,0,0.1-0.2,0.1-0.2l-0.1,0c-0.1,0,0-0.2-0.1-0.2c0.1-0.1,0,0.5,0,0.3c-0.1,0,0.1-0.2,0-0.2
		c0-0.1,0.1-0.2,0-0.3c0,0-0.1,0.1-0.1,0c0-0.2,0,0,0-0.2l0-0.1c0.1,0,0-0.1,0.1-0.1c-0.1,0,0-0.2-0.1-0.2l-0.1,0
		c0-0.1,0.1-0.1,0.1-0.2l0,0c0.2,0,0-0.2,0.1-0.3c-0.1-0.1,0-0.4-0.2-0.4c0-0.1,0.1-0.2,0-0.4l0,0.1c-0.1-0.1,0-0.1,0-0.2
		c0,0-0.1-0.2-0.2-0.2c0-0.1,0.1-0.1,0.2-0.1c-0.2-0.1,0.1-0.3-0.1-0.4c0,0-0.1,0.2-0.1,0.1c-0.2-0.1,0.1-0.2,0-0.4l0.1,0
		c-0.1-0.1,0-0.3-0.1-0.2c0-0.1-0.1-0.2,0.1-0.2c-0.1-0.3,0-0.7-0.3-0.8c0,0,0-0.1,0-0.1c0.1,0.1,0,0.1,0,0.1l0-0.1
		c0-0.1-0.1-0.1-0.1,0c-0.1-0.2,0.2-0.2,0.1-0.5c0,0-0.1,0-0.1-0.1l0.1-0.1c0-0.1-0.1-0.1-0.2-0.1c0-0.1,0-0.2,0-0.2l-0.1-0.1
		c0.1,0.1,0-0.1,0.1-0.1l0,0l0-0.2c0.1,0,0.1,0.1,0.1,0.1l0-0.2c-0.1,0-0.1-0.1-0.1-0.2c0-0.1,0.1-0.1,0.1-0.1c0,0,0-0.1-0.1-0.1
		l0,0.1c0,0-0.1,0-0.1-0.1c0-0.1,0.2,0,0.1-0.1l-0.1,0.1l-0.1-0.1l0.1,0l0,0c0.1-0.1,0-0.2,0.1-0.3c0-0.1-0.1-0.1-0.1-0.2l0,0
		c-0.1-0.1-0.1-0.2,0-0.3l0,0c0,0,0-0.1,0-0.2c-0.1-0.1-0.3,0-0.2-0.1c0-0.1,0.1-0.2,0.2-0.2c-0.1-0.2,0-0.4-0.2-0.6
		c0,0,0,0,0.1-0.1c-0.1-0.3,0-0.6-0.2-0.8c0,0.1-0.1,0-0.1,0c0.1-0.1-0.1-0.1,0-0.1c0.1,0,0.1,0,0.1,0.1c0-0.2-0.1-0.5-0.1-0.5
		c0,0,0.1,0,0.1,0c-0.1,0-0.2-0.1-0.1-0.2l0.1,0l-0.1,0c0,0,0.1-0.1,0-0.2l-0.1,0c0-0.1,0.1-0.3,0-0.4l-0.1-0.1c0,0,0-0.1,0.1-0.1
		c-0.1-0.2-0.1-0.3-0.2-0.3c0.1-0.4,0-0.8-0.1-1.2l0,0c-0.1-0.1,0.1-0.1,0-0.1c0,0-0.1,0-0.2,0c-0.1-0.1,0-0.2,0-0.3
		c0.1,0,0,0.1,0.1,0c0,0-0.1-0.2,0-0.2l-0.1,0.1l0-0.1c-0.1-0.1-0.1,0.3-0.3,0.2l0-0.1c-0.1,0-0.1,0.2-0.1,0.1
		c0-0.1,0.1-0.2,0.2-0.2c0-0.2,0.2-0.2,0.1-0.3c-0.1,0,0,0.2-0.1,0.1c-0.1-0.1,0-0.2-0.1-0.3c0.1,0.1,0.1,0,0.1-0.1
		c-0.1-0.1-0.1,0.1-0.1,0c0,0,0.1-0.2,0.1-0.1c0.1-0.1-0.1-0.1,0-0.2c-0.1,0-0.2,0.2-0.3,0.1c0.1,0,0.1-0.2,0.2-0.2
		c0-0.1-0.1,0-0.2,0c-0.1-0.1,0.1-0.3-0.1-0.2l0.1-0.1l-0.1-0.1c0-0.1,0-0.3-0.1-0.2c0,0-0.1-0.2,0.1-0.2c0.1,0.1,0,0.1,0.1,0.2
		c-0.1,0,0-0.2,0-0.2l-0.1,0c0,0,0-0.1,0-0.2l-0.1,0l0.1-0.1c0-0.2-0.1,0-0.2-0.1l0,0.1c0,0-0.1-0.1-0.1-0.1l0.2-0.2
		c0-0.1-0.1,0,0-0.1l-0.1,0.1c0,0-0.1,0-0.2-0.1c0-0.1,0.1-0.2,0.1-0.1c0-0.1-0.1-0.1-0.1-0.1c0-0.1,0.1,0,0.1-0.1
		c-0.1,0-0.2-0.1-0.3-0.2l-0.1,0.2l0-0.1c-0.1,0.1-0.1,0-0.2,0.1c0,0,0-0.1,0-0.2c0.2,0.1,0.2-0.2,0.3-0.2c0-0.2-0.4,0-0.2-0.3
		c0,0,0.1-0.1,0.1,0c-0.1-0.1,0.1-0.1,0-0.3c0,0.1-0.2-0.1-0.2,0.1l0.1,0.1c-0.1,0-0.1,0.1-0.2-0.1c0-0.1-0.1-0.2,0-0.2
		c0.1,0,0,0.1,0.1,0c0-0.2-0.2-0.1,0-0.3c0,0.1,0.1,0.1,0.2,0.1l0-0.1l0,0c-0.1-0.2,0.1-0.1,0-0.3l-0.1,0c-0.1,0.1,0.1,0.2,0,0.3
		c0-0.1,0-0.2-0.1-0.3l0,0.1c0,0-0.2,0-0.2-0.2c0-0.1,0,0,0.1-0.1c-0.1-0.2,0-0.3,0-0.4c-0.1,0.1-0.1-0.2-0.2,0
		c0.1,0,0.2,0.3,0.1,0.4c-0.2,0,0.1,0.1,0,0.2c-0.1-0.1-0.2-0.1-0.3-0.1l0-0.1c0.1,0,0.1,0,0.2,0c-0.1-0.2-0.1-0.3-0.1-0.5
		c-0.1,0-0.1,0-0.1,0.1c0-0.2-0.1-0.4-0.2-0.6c0.2,0.1,0-0.2,0.1-0.2c0.1,0.1,0.2,0.1,0.2,0.1c0-0.1-0.1,0-0.1,0
		c0-0.1-0.2-0.1-0.1-0.2c0,0.2-0.1,0.1-0.2,0.2c0-0.2-0.1,0-0.1-0.1l0-0.5c-0.2-0.1-0.2-0.5-0.2-0.6c-0.1-0.1-0.2,0-0.2,0
		c0-0.1,0.2,0,0-0.1l0,0c0-0.1-0.2-0.3-0.1-0.4l-0.1,0.1l0-0.1l-0.1,0.1c-0.1-0.1-0.1-0.2-0.1-0.3l0.1,0c0-0.2-0.1-0.3-0.2-0.5
		l-0.1,0l0-0.1c-0.1,0.1-0.1,0-0.1-0.1l-0.1,0.3c0.1,0.1,0.1-0.1,0.1-0.1c0.1,0,0.1,0.2,0.1,0.2c0-0.1,0-0.1,0-0.1
		c-0.1,0-0.1,0.1-0.1,0.2l0-0.1c0,0.1,0,0.2,0,0.3c0-0.1,0.1,0,0.1,0c-0.1,0-0.1,0.2,0,0.3c0.1,0.1,0,0.3,0.1,0.4
		c0.1-0.1,0.1-0.2,0.1-0.3c0.1,0.1,0,0.1,0.1,0.2c0,0.1-0.1,0.1-0.1,0.3l0.1,0c0,0.1-0.1,0.2,0,0.3c0.1,0.2,0.2,0.5,0.3,0.7l0.1,0
		c-0.1,0.2,0.1,0.4,0.1,0.5c0.2,0.2,0.1,0.5,0.3,0.6c0.1,0.4,0.2,0.8,0.4,1.3l0.1-0.1c0,0.1,0.1,0,0.1,0.1c-0.1-0.1-0.1,0.1-0.1,0.2
		c0.1,0.2,0.1,0.5,0.1,0.7l0.1,0c-0.1,0.2,0.1,0.4,0.2,0.6c0,0,0.1,0,0.1,0.1c-0.1,0.2,0,0.2-0.1,0.4c0,0.1,0.1,0.3,0.2,0.4
		c0,0.5,0.3,1,0.3,1.5l0.1,0c0,0.5,0.3,1.1,0.3,1.6l0.1-0.1c0.1,0.1,0,0.3-0.1,0.3c0.1,0.1,0,0.3,0.1,0.4c0.1,0.1,0,0.2,0,0.3
		c0.1,0.3,0.1,0.4,0.2,0.6l0-0.1c0,0,0.1-0.1,0.1,0c0,0.1,0.1,0.3-0.1,0.3c0.2,0.3,0.1,0.7,0.2,0.9l-0.1,0.1
		c0.1,0.2,0.2,0.5,0.1,0.7c0,0,0.1-0.1,0.1,0c0,0.1-0.1,0-0.1,0.1c0,0.4,0.2,0.8,0.3,1.1c0,0.7,0.2,1.3,0.2,1.9l0,0
		c-0.1,0.2,0.2,0.5,0,0.7c0,0,0,0.2,0.1,0.1c-0.1,0.2,0.1,0.4,0.1,0.7l0-0.1c0.1,0.2,0,0.5,0.1,0.7l0-0.1c0.1,0.1-0.1,0.3,0.1,0.3
		c0,0.1-0.1,0.1-0.1,0c0.1,0.6,0.1,1.2,0.1,1.7c0.1,0.4,0.3,0,0.2,0.3l0,0c0,0.1,0.2,0.2,0.1,0.3c-0.1,0-0.1,0.1-0.1,0.1
		c0.1,0.2,0.2,0.3,0.1,0.5l0.1,0c-0.1,0.2,0,0.5-0.2,0.7c0.1,1.3,0.1,2.6,0.1,3.8l0.1,1.9l0,0.2l0,0.1l0,0l0,0l0,0l0,0
		c0.6,0.2-1.4-0.4,1.4,0.4l0,0l0,0l0.1-0.1l0.3-0.4l0.5-0.8c0-0.3,0.1-0.3,0.3-0.6l0,0c0.1,0.1,0.1-0.2,0.2-0.2
		c0.2-0.4,0.5-0.8,0.8-1.2c-0.1,0.1-0.2,0-0.1,0l0.1,0l0,0c0,0,0.1-0.1,0.1,0c0.8-1,1.2-2.1,1.9-3.1c0.1-0.3,0.4-0.6,0.6-0.8
		c0.4-0.9,0.7-1.6,1.3-2.3C119.5,177.4,119.2,177.3,118.9,177.6"/>
	<path id="XMLID_1743_" class="st2" d="M106.6,156.1c0.1,0,0.1,0.1,0.2,0C106.7,156.1,106.6,156.1,106.6,156.1"/>
	<polyline id="XMLID_1742_" class="st2" points="108.2,158.5 108.2,158.6 108.2,158.5 108.2,158.5 	"/>
	<path id="XMLID_1741_" class="st2" d="M108.5,159.2c0,0,0-0.2,0-0.3L108.5,159.2"/>
	<path id="XMLID_1740_" class="st2" d="M108.9,159.8C109,159.8,109,159.8,108.9,159.8L108.9,159.8"/>
	<path id="XMLID_1739_" class="st2" d="M108.8,159.9L108.8,159.9C108.9,160,108.9,159.8,108.8,159.9"/>
	<path id="XMLID_1738_" class="st2" d="M109.5,161.2c0,0,0,0.1,0.1,0.1C109.5,161.3,109.5,161.2,109.5,161.2"/>
	<polyline id="XMLID_1737_" class="st2" points="109.6,161.9 109.6,161.9 109.7,161.9 109.6,161.9 	"/>
	<polyline id="XMLID_1736_" class="st2" points="106.7,175 106.7,175 106.7,175 106.7,175 	"/>
	<path id="XMLID_1735_" class="st2" d="M105.4,179.6C105.4,179.7,105.4,179.6,105.4,179.6C105.5,179.6,105.4,179.7,105.4,179.6"/>
	<polyline id="XMLID_1734_" class="st2" points="105.4,182.6 105.4,182.5 105.3,182.6 105.4,182.6 	"/>
</g>
</svg>
